Coordinates
version=1
nRows=9
nColumns=36
inDegrees=yes

Units are S.I. units (second, meters, Newtons, ...)
If the header above contains a line with 'inDegrees', this indicates whether rotational values are in degrees (yes) or radians (no).

endheader
time	pelvis_tilt	pelvis_list	pelvis_rotation	pelvis_tx	pelvis_ty	pelvis_tz	hip_flexion_r	hip_adduction_r	hip_rotation_r	knee_angle_r	knee_angle_r_beta	ankle_angle_r	subtalar_angle_r	mtp_angle_r	hip_flexion_l	hip_adduction_l	hip_rotation_l	knee_angle_l	knee_angle_l_beta	ankle_angle_l	subtalar_angle_l	mtp_angle_l	lumbar_extension	lumbar_bending	lumbar_rotation	arm_flex_r	arm_add_r	arm_rot_r	elbow_flex_r	pro_sup_r	arm_flex_l	arm_add_l	arm_rot_l	elbow_flex_l	pro_sup_l
      2.01000000	      0.60277532	     -0.16854981	     38.40120674	      0.32119684	      0.92947130	     -0.08488180	     -0.15353187	     -1.93179070	    -19.26200718	     16.69160632	      0.29132349	      3.81454380	    -34.16845689	     -7.49999987	     12.01294020	     -6.84578867	     21.74768281	     12.00884755	      0.20959393	      1.62399047	      0.36645144	     -7.49999987	    -12.14256223	      0.35472962	     22.30046539	      9.10202002	    -11.33018525	      4.96051612	     24.83360237	     89.18265771	     -5.00746687	      1.67067831	     -1.41111589	     24.47727723	     83.30832196
      2.01166670	      0.74615455	     -0.10690600	     38.59612937	      0.32129341	      0.93146130	     -0.08538096	      0.41313430	     -1.93766975	    -19.07720165	     17.69159080	      0.30877651	      4.33393129	    -34.22357450	     -7.49999987	     12.29618784	     -6.87914400	     21.92496471	     12.32083344	      0.21503911	      1.49076874	      0.52817832	     -7.49999987	    -12.68145784	      0.29321233	     22.33221347	      9.67177814	    -11.46891296	      5.04308012	     24.91922925	     89.24015603	     -4.78661678	      1.84178226	     -1.22132505	     24.54522063	     83.37760094
      2.01333330	      0.94211773	      0.03558855	     38.83375174	      0.32146565	      0.93072712	     -0.08575691	      0.97289364	     -2.07464111	    -19.01291908	     18.97110887	      0.33110831	      4.83269349	    -34.29090679	     -7.49999987	     12.53251576	     -6.82025022	     22.11315382	     12.70339520	      0.22171607	      1.44884064	      0.59785363	     -7.49999987	    -13.26422999	      0.23050799	     22.42683056	     10.21886100	    -11.67509549	      5.09789633	     25.01440259	     89.27909984	     -4.59211450	      2.01733531	     -1.04455723	     24.62980627	     83.43037346
      2.01500000	      0.88642413	      0.12769730	     38.65440111	      0.32163859	      0.92977280	     -0.08564493	      1.75251386	     -2.36979172	    -18.63172946	     20.28471519	      0.35403507	      5.36788991	    -34.30837968	     -7.49999987	     12.79831737	     -6.62932911	     22.08942575	     13.14060021	      0.22934674	      1.47528737	      0.56475374	     -7.49999987	    -13.43700284	      0.01608678	     22.57161549	     10.85773669	    -11.78604841	      6.59349487	     24.84014449	     89.48495337	     -4.73905919	      1.99487733	     -0.27641313	     24.90881983	     83.16101687
      2.01666670	      0.98871233	      0.30180824	     38.49365476	      0.32174378	      0.92690002	     -0.08524634	      2.31957025	     -2.66147509	    -18.33419548	     21.68316551	      0.37844263	      5.86326492	    -34.33836747	     -7.49999987	     12.82301912	     -6.52255023	     21.97915540	     13.51037922	      0.23580060	      1.54771057	      0.35385910	     -7.49999987	    -13.78702282	     -0.18977183	     22.88847498	     11.33676937	    -11.93504431	      7.16266281	     24.96372575	     89.08351334	     -4.83086733	      2.17916648	     -0.40818966	     25.24743813	     82.96905655
      2.01833330	      1.06772282	      0.51880675	     38.11113701	      0.32596981	      0.92692451	     -0.08970971	      2.57998650	     -3.10960026	    -18.20588306	     22.89365935	      0.39956973	      6.18797749	    -34.34854249	     -7.49999987	     12.64674189	     -6.31151127	     21.89158176	     14.00465685	      0.24442737	      1.90858773	      0.07882319	     -7.49999987	    -13.89462876	     -0.30411650	     23.40657774	     11.56703296	    -12.00354241	      7.15126116	     25.03179353	     89.08406747	     -5.07580238	      2.33903238	     -0.33290137	     25.27629086	     82.99801988
      2.02000000	      1.02733561	      0.69344242	     37.70838497	      0.32643173	      0.92886678	     -0.08944068	      2.97631682	     -3.57456979	    -17.95096664	     24.07511238	      0.42018998	      6.50408907	    -34.33737418	     -7.49999987	     12.48272178	     -6.13028924	     21.63499649	     14.33125328	      0.25012756	      2.13186550	     -0.29284304	     -7.49999987	    -13.77900964	     -0.45496522	     23.96224670	     11.70353552	    -12.25726462	      8.51547189	     25.26915700	     87.19302337	     -5.46494039	      2.46401453	     -0.11633707	     25.46462771	     81.50182066
      2.02166670	      1.15717931	      0.90171159	     37.53264300	      0.32235576	      0.92855349	     -0.08393701	      3.45498744	     -3.88614791	    -17.73316619	     25.40101739	      0.44333139	      7.01715602	    -34.35256106	     -7.49999987	     12.42651714	     -6.05465802	     21.56250909	     14.75170153	      0.25746576	      2.40154175	     -0.49674576	     -7.49999987	    -14.03657428	     -0.58770404	     24.36703660	     12.04989892	    -12.31786109	      8.35174262	     25.43853593	     87.20968702	     -5.54511425	      2.58663155	     -0.17072124	     25.58180043	     81.54784300
      2.02333330	      1.03903734	      0.97922458	     37.38340955	      0.32287765	      0.92761132	     -0.08378754	      4.08967505	     -4.19341349	    -17.54076138	     26.44296952	      0.46151688	      7.40276723	    -34.35199451	     -7.49999987	     12.67089299	     -5.87580333	     21.68486272	     15.13892620	      0.26422411	      2.31989359	     -0.94690465	     -7.49999987	    -13.88295732	     -0.77734663	     25.17062887	     11.74978521	    -12.38572597	      7.42980839	     26.30223197	     82.34198205	     -5.62889894	      2.71670957	     -0.20845168	     25.81667410	     79.27726783
